<?xml version="1.0" encoding="UTF-8"?>
<svg width="400px" height="230px" viewBox="0 0 400 230" version="1.1" xmlns="http://www.w3.org/2000/svg" xmlns:xlink="http://www.w3.org/1999/xlink">
  <!-- Generator: Sketch 50.2 (55047) - http://www.bohemiancoding.com/sketch -->
  <title>Group</title>
  <desc>Created with Sketch.</desc>
  <defs></defs>
  <g id="Page-1" stroke="none" stroke-width="1" fill="none" fill-rule="evenodd">
    <g id="Group">
      <path d="M46.526,68.571 C28.898,74.26 8.481,83.12 5.215,101.352 C3.086,113.231 9.987,125.665 20.377,131.802 C25.451,134.798 31.677,136.906 34.33,142.166 C38.454,150.339 31.044,159.71 23.222,164.463 C15.398,169.216 5.856,172.986 2.294,181.418 C-0.053,186.976 0.867,193.45 3.191,199.017 C11.713,219.435 36.561,228.377 58.659,227.285 C80.757,226.193 101.716,217.583 123.393,213.151 C197.832,197.93 275.879,232.478 350.191,216.646 C361.755,214.182 373.403,210.327 382.334,202.579 C392.4,193.847 398.117,180.672 398.979,167.373 C399.802,154.686 395.304,140.4 383.948,134.683 C377.312,131.342 369.381,131.478 362.177,133.296 C357.577,134.456 353.056,136.274 348.311,136.305 C343.566,136.335 338.346,133.959 336.971,129.418 C335.525,124.642 338.82,119.713 342.598,116.455 C350.283,109.829 360.559,106.519 367.538,99.154 C374.253,92.067 377.08,81.502 374.801,72.008 C372.521,62.514 365.207,54.384 356.005,51.118 C332.554,42.794 307.004,65.488 283.024,58.838 C281.244,58.345 279.371,57.583 278.434,55.991 C277.519,54.437 277.728,52.465 278.253,50.74 C281.191,41.084 292.602,34.937 293.101,24.856 C293.373,19.376 290.133,14.249 286.049,10.584 C257.987,-14.595 217.326,15.356 188.714,24.811 C141.664,40.359 93.704,53.345 46.526,68.571" id="Fill-4" fill="#453A73"></path>
      <path d="M160.302,148.536 C160.299,148.531 160.301,148.525 160.306,148.522 L167.06,144.53 C167.064,144.527 167.067,144.52 167.065,144.516 C167.065,144.516 166.322,142.512 165.824,141.453 C165.325,140.395 164.797,139.394 164.241,138.454 C163.093,136.512 160.348,133.152 160.348,133.152 C160.345,133.147 160.338,133.146 160.333,133.149 L153.579,137.142 C153.574,137.144 153.568,137.143 153.565,137.138 L144.681,122.108 C144.678,122.103 144.672,122.101 144.666,122.104 C144.666,122.104 142.28,123.199 141.096,123.772 C139.912,124.345 138.755,124.965 137.627,125.632 C136.56,126.263 135.553,126.921 134.606,127.608 C133.658,128.295 131.705,129.765 131.705,129.765 C131.701,129.768 131.7,129.775 131.702,129.78 L140.587,144.81 C140.589,144.815 140.588,144.821 140.583,144.824 L127.151,152.763 C127.146,152.766 127.142,152.764 127.142,152.758 L123.28,102.015 C123.28,102.01 123.275,102.005 123.269,102.005 C123.269,102.005 118.242,101.747 115.878,102.256 C113.514,102.766 108.921,104.53 108.921,104.53 C108.916,104.532 108.913,104.538 108.913,104.543 L114.093,174.05 C114.093,174.055 114.098,174.062 114.102,174.065 L115.71,174.872 C115.715,174.875 115.723,174.875 115.727,174.872 L147.31,156.203 C147.314,156.201 147.321,156.203 147.323,156.207 L155.096,169.356 C155.098,169.361 155.104,169.363 155.11,169.361 C155.11,169.361 157.496,168.266 158.682,167.693 C159.865,167.12 161.021,166.499 162.15,165.833 C163.215,165.203 164.223,164.544 165.17,163.857 C166.117,163.171 168.07,161.699 168.07,161.699 C168.075,161.696 168.076,161.689 168.073,161.684 L160.302,148.536" id="Fill-5" fill="#FFFFFE"></path>
      <path d="M288.895,142.711 C287.835,141.931 286.748,141.199 285.63,140.512 C284.575,139.864 283.522,139.281 282.473,138.765 C281.422,138.247 279.21,137.207 279.21,137.207 C279.205,137.204 279.198,137.206 279.195,137.211 L270.056,152.087 C270.053,152.091 270.046,152.093 270.042,152.09 L256.748,143.923 C256.744,143.92 256.744,143.915 256.748,143.912 L299.812,116.797 C299.817,116.794 299.819,116.787 299.816,116.782 C299.816,116.782 297.695,112.216 296.141,110.364 C294.587,108.511 290.881,105.274 290.881,105.274 C290.877,105.271 290.87,105.27 290.865,105.273 L231.827,142.318 C231.822,142.321 231.818,142.328 231.818,142.333 L231.854,144.133 C231.854,144.139 231.858,144.145 231.863,144.148 L263.121,163.354 C263.125,163.357 263.127,163.363 263.124,163.368 L255.128,176.381 C255.125,176.386 255.126,176.393 255.131,176.396 C255.131,176.396 257.214,177.995 258.273,178.775 C259.333,179.554 260.422,180.287 261.539,180.974 C262.593,181.621 263.645,182.203 264.696,182.722 C265.746,183.238 267.959,184.279 267.959,184.279 C267.964,184.281 267.971,184.279 267.974,184.274 L275.969,171.26 C275.972,171.255 275.978,171.253 275.983,171.256 L282.668,175.365 C282.673,175.368 282.68,175.367 282.684,175.362 C282.684,175.362 284.108,173.77 284.811,172.834 C285.514,171.899 286.153,170.964 286.724,170.035 C287.906,168.112 289.594,164.115 289.594,164.115 C289.596,164.11 289.594,164.104 289.589,164.101 L282.904,159.993 C282.899,159.99 282.898,159.984 282.901,159.979 L292.04,145.103 C292.043,145.099 292.042,145.092 292.038,145.089 C292.038,145.089 289.956,143.491 288.895,142.711" id="Fill-6" fill="#FFFFFE"></path>
      <path d="M234.469,127.34 C234.469,146.376 219.037,161.809 200,161.809 C180.963,161.809 165.531,146.376 165.531,127.34 C165.531,108.304 180.963,92.871 200,92.871 C219.037,92.871 234.469,108.304 234.469,127.34" id="Fill-7" fill="#7C679F"></path>
      <path d="M165.807,123.049 C176.033,124.503 193.224,117.2 198.735,116.131 C209.938,113.957 221.445,116.545 232.863,116.924 C232.072,114.427 231.002,112.056 229.694,109.841 C225.495,110.015 221.069,109.286 216.833,109.163 C208.789,108.929 200.791,111.042 192.76,110.556 C189.048,110.331 180.694,107.08 173.098,105.802 C169.211,110.65 166.612,116.57 165.807,123.049" id="Fill-8" fill="#B19EC0"></path>
      <path d="M200,92.871 C196.498,92.871 193.119,93.397 189.935,94.369 C194.253,96.834 202.908,97.718 204.916,97.987 C208.527,98.471 212.449,98.644 215.548,96.731 C215.591,96.704 215.633,96.673 215.676,96.645 C210.972,94.238 205.647,92.871 200,92.871" id="Fill-9" fill="#B19EC0"></path>
      <path d="M234.456,127.82 C224.525,125.311 214.012,125.108 204.002,127.294 C198.564,128.481 193.298,130.349 187.894,131.682 C181.099,133.357 174.094,134.167 167.097,134.113 C166.803,134.111 166.501,134.101 166.196,134.087 C167.564,140.981 170.988,147.133 175.803,151.881 C184.057,148.955 191.987,145.118 199.397,140.451 C205.879,136.368 212.365,131.505 219.994,130.807 C224.73,130.374 229.384,131.609 234.073,132.578 C234.31,131.024 234.435,129.434 234.456,127.82" id="Fill-10" fill="#B19EC0"></path>
      <path d="M232.631,138.442 C227.956,137.75 219.598,141.862 217.552,143.595 C215.726,145.142 214.186,147.032 212.214,148.389 C209.711,150.111 206.686,150.861 203.744,151.62 C197.806,153.152 191.91,154.852 186.068,156.719 C185.326,156.955 184.522,157.281 184.16,157.951 C188.904,160.411 194.287,161.809 200,161.809 C203.998,161.809 207.832,161.12 211.403,159.869 C214.98,154.763 217.117,148.146 222.778,145.746 C223.735,145.341 227.097,144.861 230.134,144.073 C231.128,142.288 231.963,140.404 232.631,138.442" id="Fill-11" fill="#B19EC0"></path>
      <path d="M302.925,229.84 C294.363,184.022 254.167,149.34 205.865,149.34 C157.563,149.34 117.367,184.022 108.805,229.84 L302.925,229.84" id="Fill-12" fill="#FFFFFE"></path>
      <path d="M223.959,205.895 C223.503,209.356 218.142,211.503 211.984,210.691 C205.827,209.879 201.205,206.416 201.662,202.955 C202.118,199.495 207.479,197.348 213.637,198.16 C219.794,198.972 224.415,202.435 223.959,205.895" id="Fill-13" fill="#57B9CC"></path>
      <path d="M146.593,68.59 C146.593,75.632 140.884,81.34 133.843,81.34 C126.801,81.34 121.093,75.632 121.093,68.59 C121.093,61.548 126.801,55.84 133.843,55.84 C140.884,55.84 146.593,61.548 146.593,68.59" id="Fill-14" fill="#8BA4C9"></path>
      <path d="M133.843,55.84 C131.576,55.84 129.452,56.438 127.607,57.475 C127.699,57.629 127.8,57.774 127.919,57.894 C129.207,59.194 132.277,59.25 133.99,59.331 C136.496,59.451 139.022,59.12 141.411,58.346 C139.292,56.778 136.68,55.84 133.843,55.84" id="Fill-15" fill="#5384B7"></path>
      <path d="M143.593,62.66 C144.015,62.513 144.442,62.36 144.825,62.136 C144.495,61.575 144.132,61.036 143.723,60.535 C142.451,61.104 141.179,61.674 139.907,62.244 C138.92,62.685 137.928,63.129 136.882,63.404 C135.342,63.807 133.73,63.833 132.138,63.82 C128.833,63.794 125.603,63.48 122.338,63.121 C121.548,64.78 121.093,66.63 121.093,68.59 C121.093,69.517 121.197,70.419 121.385,71.29 C122.059,71.025 122.649,70.586 123.263,70.199 C124.891,69.168 126.73,68.526 128.55,67.892 C133.564,66.148 138.579,64.404 143.593,62.66" id="Fill-16" fill="#5384B7"></path>
      <path d="M145.561,63.564 C144.573,64.447 143.841,65.618 142.762,66.459 C141.628,67.344 140.368,68.069 139.028,68.595 C138.083,68.966 137.099,69.242 136.193,69.7 C135.856,69.87 135.501,70.105 135.418,70.474 C135.271,71.125 136.038,71.594 136.688,71.745 C137.979,72.046 139.323,71.99 140.647,71.932 C142.217,71.865 143.788,71.797 145.358,71.729 C145.638,71.717 145.922,71.694 146.205,71.66 C146.449,70.675 146.593,69.65 146.593,68.59 C146.593,66.805 146.223,65.106 145.561,63.564" id="Fill-17" fill="#5384B7"></path>
      <path d="M134.177,68.245 C131.909,68.7 129.694,69.422 127.594,70.392 C126.193,71.039 124.834,71.799 123.357,72.248 C122.939,72.375 122.351,72.424 121.693,72.455 C122.446,74.823 123.869,76.892 125.743,78.436 C125.874,78.281 126.002,78.122 126.123,77.96 C128.029,75.427 129.325,72.232 132.078,70.659 C132.579,70.372 133.121,70.146 133.556,69.768 C133.992,69.391 134.311,68.807 134.177,68.245" id="Fill-18" fill="#5384B7"></path>
      <path d="M145.357,74.037 C145.213,74.021 145.068,74.016 144.933,74.023 C142.211,74.174 139.489,74.325 136.767,74.476 C135.075,74.57 133.29,74.694 131.889,75.646 C130.808,76.38 130.087,77.523 129.396,78.632 C129.163,79.008 128.742,79.53 128.351,80.083 C129.921,80.835 131.665,81.276 133.512,81.323 C133.845,80.905 134.146,80.454 134.47,80.027 C136.291,77.617 139.137,76.007 142.141,75.688 C142.937,75.603 143.743,75.601 144.538,75.516 C144.844,75.045 145.115,74.549 145.357,74.037" id="Fill-19" fill="#5384B7"></path>
      <path d="M145.543,73.653 C145.871,72.896 146.126,72.102 146.303,71.279 C143.02,72.45 139.141,73.486 134.999,74.287 C130.802,75.101 126.778,75.59 123.272,75.722 C123.741,76.414 124.276,77.057 124.868,77.643 C128.099,77.439 131.677,76.969 135.379,76.251 C139.032,75.544 142.492,74.655 145.543,73.653" id="Fill-20" fill="#3D73AC"></path>
      <path d="M121.339,76.751 C116.77,76.751 113.042,76.023 112.616,73.827 C112.216,71.757 114.918,69.608 120.65,67.441 C121.165,67.246 121.743,67.506 121.939,68.023 C122.134,68.54 121.873,69.117 121.357,69.312 C115.553,71.507 114.523,73.156 114.58,73.446 C114.792,74.54 121.994,75.807 134.999,73.287 C140.456,72.231 145.485,70.765 149.158,69.16 C153.362,67.323 154.048,66.051 154.001,65.81 C153.943,65.508 152.297,64.327 145.761,64.516 C145.225,64.538 144.748,64.098 144.732,63.546 C144.716,62.995 145.15,62.534 145.702,62.517 C152.095,62.326 155.554,63.309 155.965,65.431 C156.318,67.253 154.353,69.072 149.958,70.993 C146.155,72.655 140.977,74.167 135.379,75.251 C131.585,75.986 126.021,76.751 121.339,76.751" id="Fill-21" fill="#FFFFFE"></path>
      <path d="M340.18,97.23 C337.479,102.219 331.247,104.074 326.259,101.373 C321.27,98.673 319.415,92.44 322.116,87.452 C324.816,82.464 331.048,80.609 336.037,83.309 C341.025,86.009 342.88,92.242 340.18,97.23" id="Fill-22" fill="#5F73A9"></path>
      <path d="M336.037,83.309 C334.431,82.44 332.697,82.049 330.993,82.077 C330.999,82.221 331.015,82.362 331.053,82.493 C331.467,83.908 333.62,85.124 334.802,85.839 C336.532,86.885 338.449,87.619 340.437,87.986 C339.537,86.063 338.047,84.397 336.037,83.309" id="Fill-23" fill="#3BABD5"></path>
      <path d="M340.329,91.879 C340.684,91.937 341.045,91.992 341.402,91.98 C341.383,91.456 341.333,90.935 341.235,90.423 C340.116,90.339 338.997,90.255 337.877,90.171 C337.009,90.105 336.136,90.039 335.29,89.833 C334.043,89.528 332.892,88.928 331.769,88.309 C329.438,87.023 327.27,85.562 325.095,84.056 C323.899,84.928 322.867,86.064 322.116,87.452 C321.76,88.109 321.488,88.788 321.288,89.477 C321.866,89.548 322.453,89.463 323.036,89.424 C324.585,89.318 326.134,89.569 327.666,89.818 C331.887,90.505 336.108,91.192 340.329,91.879" id="Fill-24" fill="#3BABD5"></path>
      <path d="M341.375,93.274 C340.338,93.52 339.37,94.069 338.284,94.252 C337.141,94.444 335.97,94.474 334.819,94.333 C334.008,94.233 333.204,94.051 332.387,94.029 C332.083,94.02 331.742,94.051 331.541,94.28 C331.188,94.685 331.551,95.311 331.953,95.667 C332.753,96.375 333.726,96.851 334.686,97.318 C335.825,97.872 336.963,98.426 338.102,98.98 C338.304,99.079 338.515,99.172 338.728,99.256 C339.278,98.652 339.773,97.981 340.18,97.23 C340.864,95.966 341.253,94.621 341.375,93.274" id="Fill-25" fill="#3BABD5"></path>
      <path d="M331.517,92.225 C329.735,91.678 327.89,91.34 326.03,91.222 C324.79,91.143 323.536,91.161 322.317,90.912 C321.972,90.842 321.537,90.65 321.059,90.421 C320.684,92.387 320.898,94.398 321.634,96.21 C321.787,96.15 321.938,96.087 322.086,96.019 C324.408,94.955 326.551,93.189 329.104,93.13 C329.569,93.119 330.04,93.166 330.493,93.066 C330.946,92.965 331.396,92.674 331.517,92.225" id="Fill-26" fill="#3BABD5"></path>
      <path d="M337.216,100.616 C337.12,100.548 337.019,100.489 336.921,100.443 C334.935,99.506 332.948,98.569 330.962,97.632 C329.728,97.05 328.415,96.453 327.058,96.59 C326.011,96.696 325.061,97.229 324.147,97.75 C323.838,97.927 323.339,98.135 322.85,98.377 C323.674,99.512 324.741,100.493 326.031,101.235 C326.428,101.066 326.814,100.862 327.207,100.683 C329.421,99.675 332.054,99.626 334.305,100.552 C334.901,100.797 335.473,101.104 336.068,101.349 C336.466,101.132 336.848,100.885 337.216,100.616" id="Fill-27" fill="#3BABD5"></path>
      <path d="M130.182,188.321 L117.125,213.09 L113.53,211.195 C111.607,210.181 110.87,207.8 111.884,205.877 L121.269,188.073 C122.284,186.149 124.665,185.411 126.588,186.426 L130.182,188.321" id="Fill-28" fill="#FFFFFE"></path>
      <path d="M293.794,212.575 L286.006,193.073 L289.78,191.566 C291.799,190.759 294.089,191.743 294.895,193.761 L299.764,205.952 C300.57,207.971 299.587,210.261 297.568,211.068 L293.794,212.575" id="Fill-29" fill="#FFFFFE"></path>
      <path d="M172.82,157.923 L150.077,174.255 L147.706,170.954 C146.438,169.189 146.842,166.729 148.608,165.46 L164.956,153.721 C166.722,152.453 169.182,152.856 170.45,154.622 L172.82,157.923" id="Fill-30" fill="#FFFFFE"></path>
      <path d="M275.871,184.974 L253.535,168.087 L255.986,164.846 C257.297,163.112 259.766,162.769 261.5,164.08 L277.555,176.218 C279.289,177.53 279.632,179.998 278.321,181.732 L275.871,184.974" id="Fill-31" fill="#FFFFFE"></path>
      <path d="M173.909,174.71 C175.659,178.158 170.79,184.144 163.034,188.081 C155.278,192.019 147.571,192.417 145.821,188.97 C144.071,185.523 148.94,179.536 156.696,175.598 C164.453,171.661 172.159,171.263 173.909,174.71" id="Fill-32" fill="#57B9CC"></path>
      <path d="M157.696,178.598 C164.702,175.041 171.651,174.384 174.223,176.828 C174.323,176.056 174.229,175.34 173.909,174.71 C172.159,171.263 164.453,171.661 156.696,175.598 C148.94,179.536 144.071,185.523 145.821,188.97 C145.991,189.303 146.231,189.59 146.507,189.852 C146.952,186.402 151.358,181.817 157.696,178.598" id="Fill-33" fill="#453A73"></path>
      <path d="M268.773,186.578 C267.397,188.779 262.268,188.052 257.317,184.956 C252.366,181.861 249.467,177.568 250.843,175.368 C252.219,173.166 257.348,173.892 262.299,176.988 C267.25,180.083 270.149,184.377 268.773,186.578" id="Fill-34" fill="#57B9CC"></path>
      <path d="M260.921,178.602 C265.393,181.399 268.178,185.166 267.664,187.492 C268.143,187.282 268.521,186.98 268.773,186.578 C270.149,184.377 267.25,180.083 262.299,176.988 C257.348,173.892 252.219,173.166 250.843,175.368 C250.71,175.58 250.629,175.818 250.574,176.067 C252.712,175.127 256.874,176.073 260.921,178.602" id="Fill-35" fill="#453A73"></path>
      <path d="M213.637,198.16 C207.479,197.348 202.118,199.495 201.662,202.955 C201.628,203.206 201.629,203.457 201.648,203.707 C202.984,200.914 207.815,199.3 213.282,200.021 C218.993,200.774 223.375,203.808 223.618,207.005 C223.787,206.653 223.908,206.284 223.959,205.895 C224.415,202.435 219.794,198.972 213.637,198.16" id="Fill-36" fill="#453A73"></path>
      <path d="M63.865,112.758 C63.865,114.553 62.41,116.008 60.615,116.008 C58.82,116.008 57.365,114.553 57.365,112.758 C57.365,110.963 58.82,109.508 60.615,109.508 C62.41,109.508 63.865,110.963 63.865,112.758" id="Fill-37" fill="#57B9CC"></path>
      <path d="M249.49,23.757 C248.685,23.757 248.032,23.104 248.032,22.299 C248.032,21.494 248.685,20.841 249.49,20.841 C250.295,20.841 250.947,21.494 250.947,22.299 C250.947,23.104 250.295,23.757 249.49,23.757" id="Fill-38" fill="#57B9CC"></path>
      <path d="M270.157,50.799 C269.353,50.799 268.7,50.146 268.7,49.341 C268.7,48.536 269.353,47.883 270.157,47.883 C270.962,47.883 271.615,48.536 271.615,49.341 C271.615,50.146 270.962,50.799 270.157,50.799" id="Fill-39" fill="#57B9CC"></path>
      <path d="M26.615,98.257 C25.81,98.257 25.157,97.604 25.157,96.799 C25.157,95.994 25.81,95.341 26.615,95.341 C27.42,95.341 28.073,95.994 28.073,96.799 C28.073,97.604 27.42,98.257 26.615,98.257" id="Fill-40" fill="#57B9CC"></path>
      <path d="M235.119,74.967 C235.119,76.003 234.279,76.844 233.242,76.844 C232.206,76.844 231.365,76.003 231.365,74.967 C231.365,73.93 232.206,73.09 233.242,73.09 C234.279,73.09 235.119,73.93 235.119,74.967" id="Fill-41" fill="#FFFFFE"></path>
      <path d="M313.992,161.217 C313.992,162.253 313.152,163.094 312.115,163.094 C311.079,163.094 310.238,162.253 310.238,161.217 C310.238,160.18 311.079,159.34 312.115,159.34 C313.152,159.34 313.992,160.18 313.992,161.217" id="Fill-42" fill="#FFFFFE"></path>
      <path d="M369.369,164.34 C369.369,165.376 368.529,166.217 367.492,166.217 C366.456,166.217 365.615,165.376 365.615,164.34 C365.615,163.303 366.456,162.463 367.492,162.463 C368.529,162.463 369.369,163.303 369.369,164.34" id="Fill-43" fill="#FFFFFE"></path>
      <path d="M73.992,191.717 C73.992,192.753 73.152,193.594 72.115,193.594 C71.079,193.594 70.238,192.753 70.238,191.717 C70.238,190.68 71.079,189.84 72.115,189.84 C73.152,189.84 73.992,190.68 73.992,191.717" id="Fill-44" fill="#FFFFFE"></path>
      <path d="M182.369,55.84 C182.369,56.876 181.529,57.717 180.492,57.717 C179.456,57.717 178.615,56.876 178.615,55.84 C178.615,54.803 179.456,53.963 180.492,53.963 C181.529,53.963 182.369,54.803 182.369,55.84" id="Fill-45" fill="#FFFFFE"></path>
      <polyline id="Fill-46" fill="#FFFFFE" points="159.61 101.454 162.112 102.884 159.558 104.219 158.128 106.722 156.793 104.167 154.29 102.738 156.845 101.402 158.274 98.9 159.61 101.454"></polyline>
      <polyline id="Fill-47" fill="#FFFFFE" points="277.485 75.12 279.119 76.054 277.451 76.926 276.518 78.559 275.646 76.892 274.012 75.958 275.68 75.086 276.613 73.453 277.485 75.12"></polyline>
      <polyline id="Fill-48" fill="#FFFFFE" points="84.649 153.536 86.283 154.469 84.615 155.341 83.682 156.975 82.81 155.307 81.176 154.374 82.844 153.502 83.777 151.868 84.649 153.536"></polyline>
      <polyline id="Fill-49" fill="#FFFFFE" points="85.582 86.902 87.216 87.836 85.549 88.707 84.615 90.341 83.743 88.674 82.11 87.74 83.777 86.868 84.711 85.235 85.582 86.902"></polyline>
      <polyline id="Fill-50" fill="#FFFFFE" points="35.615 186.34 37.249 187.274 35.581 188.145 34.648 189.779 33.776 188.112 32.142 187.178 33.809 186.306 34.743 184.672 35.615 186.34"></polyline>
      <polyline id="Fill-51" fill="#FFFFFE" points="332.455 140.235 334.088 141.168 332.421 142.04 331.487 143.674 330.615 142.007 328.981 141.073 330.649 140.201 331.582 138.567 332.455 140.235"></polyline>
      <polyline id="Fill-52" fill="#FFFFFE" points="352.615 206.006 354.249 206.94 352.582 207.812 351.648 209.446 350.776 207.779 349.142 206.845 350.81 205.973 351.743 204.339 352.615 206.006"></polyline>
    </g>
  </g>
</svg>